<svg xmlns="http://www.w3.org/2000/svg" viewBox="0 0 400 400"><defs><style>.cls-1{fill:#5ba9dd;}.cls-2{fill:#594a42;}.cls-3{fill:#d5985b;}.cls-4{fill:#d1d3d4;}</style></defs><title>Chair Vector</title><g id="light-person"><g id="slightly_bent" data-name="slightly bent"><path class="cls-1" d="M207.62,258.32c-45.41,0-99.94-4.63-140.38-22.66A19,19,0,0,1,82.67,201C154.32,233,287,215.74,288.31,215.56a19,19,0,0,1,5,37.59A707.77,707.77,0,0,1,207.62,258.32Z"/><path class="cls-2" d="M207.62,260.85c-59.77,0-107.35-7.7-141.41-22.88A21.49,21.49,0,1,1,83.7,198.71c28.46,12.69,69.85,19.12,123,19.12A699,699,0,0,0,288,213.05a23.18,23.18,0,0,1,2.87-.19,21.49,21.49,0,0,1,2.84,42.79A703,703,0,0,1,207.62,260.85ZM75,201.9a16.44,16.44,0,0,0-6.69,31.45c32.94,14.68,81.12,22.44,139.35,22.44A697,697,0,0,0,293,250.64a16.43,16.43,0,0,0-2.17-32.72,16.26,16.26,0,0,0-2.2.15,709.6,709.6,0,0,1-81.91,4.81c-53.89,0-96-6.58-125.09-19.55A16.24,16.24,0,0,0,75,201.9Z"/><path class="cls-3" d="M270.45,348a12.22,12.22,0,0,1-12.2-11.78A838.75,838.75,0,0,1,283.91,97.72l9.34-36.51a12.22,12.22,0,1,1,23.68,6.06l-9.35,36.51a814.91,814.91,0,0,0-24.91,231.54A12.22,12.22,0,0,1,270.9,348Z"/><path class="cls-2" d="M270.45,350.51a14.69,14.69,0,0,1-14.73-14.21A841.3,841.3,0,0,1,281.46,97.09l9.34-36.51a14.75,14.75,0,0,1,14.28-11.09,15.19,15.19,0,0,1,3.67.46,14.75,14.75,0,0,1,10.63,18L310,104.41a812.39,812.39,0,0,0-24.84,230.82A14.74,14.74,0,0,1,271,350.5Zm34.63-296a9.68,9.68,0,0,0-9.38,7.29l-9.34,36.51a836.23,836.23,0,0,0-25.59,237.76,9.69,9.69,0,0,0,19.37-.7,817.4,817.4,0,0,1,25-232.26l9.35-36.51a9.69,9.69,0,0,0-7-11.79A9.82,9.82,0,0,0,305.08,54.55Z"/><path class="cls-2" d="M274.83,348.3a2.52,2.52,0,0,1-2.53-2.49l-.24-17.5a2.52,2.52,0,0,1,2.49-2.56h0a2.51,2.51,0,0,1,2.52,2.49l.25,17.5a2.53,2.53,0,0,1-2.5,2.56Z"/><path class="cls-2" d="M274,323.21a2.52,2.52,0,0,1-2.52-2.49l-.1-6.56a2.54,2.54,0,0,1,2.5-2.56h0a2.53,2.53,0,0,1,2.53,2.5l.09,6.55a2.52,2.52,0,0,1-2.49,2.56Z"/><path class="cls-2" d="M268.1,337.47a2.52,2.52,0,0,1-2.52-2.49l-.2-14.18a2.53,2.53,0,1,1,5.05-.07l.2,14.17a2.53,2.53,0,0,1-2.49,2.57Z"/><path class="cls-2" d="M268.13,308.69a2.53,2.53,0,0,1-2.53-2.49l-.05-3.48a2.54,2.54,0,0,1,2.5-2.57h0a2.53,2.53,0,0,1,2.53,2.5l.05,3.48a2.52,2.52,0,0,1-2.49,2.56Z"/><path class="cls-2" d="M137,242.05h-.27l-2.93-.3a2.53,2.53,0,1,1,.52-5l2.93.3a2.53,2.53,0,0,1-.25,5Z"/><path class="cls-3" d="M120.18,345.56a12.64,12.64,0,0,1-12.64-12.64V283.07A116.26,116.26,0,0,1,223.67,166.94h72.72a12.64,12.64,0,0,1,0,25.28H223.67a91,91,0,0,0-90.85,90.85v49.85A12.64,12.64,0,0,1,120.18,345.56Z"/><path class="cls-2" d="M120.18,348.08A15.18,15.18,0,0,1,105,332.92V283.07A118.79,118.79,0,0,1,223.67,164.41h72.72a15.17,15.17,0,0,1,0,30.34H223.67a88.43,88.43,0,0,0-88.33,88.32v49.85A15.18,15.18,0,0,1,120.18,348.08ZM223.67,169.47a113.74,113.74,0,0,0-113.61,113.6v49.85a10.12,10.12,0,0,0,20.23,0V283.07a93.49,93.49,0,0,1,93.38-93.38h72.72a10.11,10.11,0,1,0,0-20.22Z"/><path class="cls-4" d="M285.5,179.58a5.9,5.9,0,1,1-5.9-5.9A5.9,5.9,0,0,1,285.5,179.58Z"/><path class="cls-2" d="M279.6,188a8.43,8.43,0,1,1,8.43-8.43A8.45,8.45,0,0,1,279.6,188Zm0-11.8a3.37,3.37,0,1,0,3.37,3.37A3.37,3.37,0,0,0,279.6,176.21Z"/><path class="cls-2" d="M123.85,344.83a2.53,2.53,0,0,1-2.53-2.48l-.29-17.5a2.53,2.53,0,0,1,2.49-2.57h0a2.53,2.53,0,0,1,2.53,2.48l.29,17.5a2.53,2.53,0,0,1-2.49,2.57Z"/><path class="cls-2" d="M117,320.79a2.54,2.54,0,0,1-2.53-2.49l-.11-6.55a2.53,2.53,0,0,1,2.49-2.57h0a2.52,2.52,0,0,1,2.53,2.48l.11,6.56a2.54,2.54,0,0,1-2.49,2.57Z"/><path class="cls-2" d="M114.74,343.17a2.53,2.53,0,0,1-2.53-2.49L112,326.51a2.53,2.53,0,1,1,5-.08l.24,14.17a2.53,2.53,0,0,1-2.49,2.57Z"/><path class="cls-2" d="M122.94,312.83a2.54,2.54,0,0,1-2.53-2.49l0-3.48a2.52,2.52,0,0,1,2.48-2.57h0a2.52,2.52,0,0,1,2.52,2.48l.06,3.49a2.54,2.54,0,0,1-2.49,2.57Z"/></g></g></svg>