<svg xmlns="http://www.w3.org/2000/svg" viewBox="0 0 400 400"><defs><style>.cls-1{fill:#5ba9dd;stroke:#5a4a42;stroke-miterlimit:10;stroke-width:5px;}.cls-2{fill:#d5985b;}.cls-3{fill:#594a42;}.cls-4{fill:#d1d3d4;}</style></defs><title>Chair Vector</title><g id="nobody-sitting"><g id="flat"><path class="cls-1" d="M295.1,258.45a19,19,0,0,0-5-37.59c-1.33.18-123.63-6.64-205.64-14.53-10.68-1-21.29.08-25.34,10.33-4.4,11.11,3.12,23.39,15,25Z"/><path class="cls-2" d="M272.21,353.28A12.22,12.22,0,0,1,260,341.51,838.81,838.81,0,0,1,285.67,103L295,66.51a12.22,12.22,0,1,1,23.68,6.06l-9.35,36.51a814.91,814.91,0,0,0-24.91,231.54,12.23,12.23,0,0,1-11.77,12.66Z"/><path class="cls-3" d="M272.21,355.81a14.69,14.69,0,0,1-14.73-14.21,841.19,841.19,0,0,1,25.74-239.2l9.34-36.51a14.75,14.75,0,0,1,14.28-11.1,15.19,15.19,0,0,1,3.67.46,14.76,14.76,0,0,1,10.63,18l-9.35,36.51A812.39,812.39,0,0,0,287,340.53a14.72,14.72,0,0,1-14.2,15.27Zm34.63-296a9.69,9.69,0,0,0-9.38,7.29l-9.34,36.51a836.3,836.3,0,0,0-25.59,237.77,9.69,9.69,0,0,0,19.37-.71,817.29,817.29,0,0,1,25-232.25l9.35-36.52a9.69,9.69,0,0,0-7-11.79A9.82,9.82,0,0,0,306.84,59.85Z"/><path class="cls-3" d="M138.75,247.35h-.27l-2.93-.3a2.53,2.53,0,1,1,.52-5l2.93.3a2.53,2.53,0,0,1-.25,5Z"/><path class="cls-2" d="M121.94,350.86a12.64,12.64,0,0,1-12.64-12.64V288.38A116.26,116.26,0,0,1,225.43,172.24h72.72a12.64,12.64,0,1,1,0,25.28H225.43a91,91,0,0,0-90.85,90.86v49.84A12.64,12.64,0,0,1,121.94,350.86Z"/><path class="cls-3" d="M121.94,353.39a15.19,15.19,0,0,1-15.17-15.17V288.38A118.8,118.8,0,0,1,225.43,169.71h72.72a15.17,15.17,0,0,1,0,30.34H225.43a88.43,88.43,0,0,0-88.33,88.33v49.84A15.18,15.18,0,0,1,121.94,353.39ZM225.43,174.77A113.74,113.74,0,0,0,111.82,288.38v49.84a10.12,10.12,0,0,0,20.23,0V288.38A93.49,93.49,0,0,1,225.43,195h72.72a10.11,10.11,0,1,0,0-20.22Z"/><path class="cls-4" d="M287.26,184.88a5.9,5.9,0,1,1-5.9-5.9A5.9,5.9,0,0,1,287.26,184.88Z"/><path class="cls-3" d="M281.36,193.31a8.43,8.43,0,1,1,8.43-8.43A8.44,8.44,0,0,1,281.36,193.31Zm0-11.8a3.37,3.37,0,1,0,3.37,3.37A3.37,3.37,0,0,0,281.36,181.51Z"/><path class="cls-3" d="M116.48,348.71a2.52,2.52,0,0,1-2.53-2.49l-.23-14.17a2.53,2.53,0,1,1,5-.08l.24,14.17a2.53,2.53,0,0,1-2.49,2.57Z"/><path class="cls-3" d="M118.78,326.33a2.53,2.53,0,0,1-2.53-2.49l-.11-6.55a2.53,2.53,0,0,1,2.49-2.57h0a2.52,2.52,0,0,1,2.53,2.48l.11,6.56a2.54,2.54,0,0,1-2.49,2.57Z"/><path class="cls-3" d="M276.57,353.84a2.52,2.52,0,0,1-2.53-2.49l-.24-17.5a2.52,2.52,0,0,1,2.49-2.56h0a2.52,2.52,0,0,1,2.52,2.49l.25,17.5a2.53,2.53,0,0,1-2.5,2.56Z"/><path class="cls-3" d="M275.73,328.75a2.53,2.53,0,0,1-2.53-2.49l-.09-6.56a2.53,2.53,0,0,1,2.5-2.56h0a2.53,2.53,0,0,1,2.53,2.5l.09,6.55a2.52,2.52,0,0,1-2.49,2.56Z"/><path class="cls-3" d="M269.84,343a2.53,2.53,0,0,1-2.53-2.49l-.19-14.18a2.53,2.53,0,1,1,5.05-.07l.2,14.17a2.53,2.53,0,0,1-2.49,2.57Z"/><path class="cls-3" d="M269.87,314.23a2.53,2.53,0,0,1-2.53-2.49l0-3.48a2.54,2.54,0,0,1,2.5-2.57h0a2.53,2.53,0,0,1,2.53,2.5l0,3.48a2.53,2.53,0,0,1-2.5,2.56Z"/><path class="cls-3" d="M125.59,350.37a2.52,2.52,0,0,1-2.53-2.48l-.29-17.5a2.53,2.53,0,0,1,2.49-2.57h0a2.53,2.53,0,0,1,2.53,2.48l.29,17.5a2.53,2.53,0,0,1-2.49,2.57Z"/></g></g></svg>